<svg id="Layer_1" data-name="Layer 1" xmlns="http://www.w3.org/2000/svg" viewBox="0 0 341.04 98.97"><defs><style>.cls-1{fill:#009ddd;}.cls-2{fill:#fdb515;}.cls-3{fill:#d0202f;}.cls-4{fill:#6f2b1d;}</style></defs><title>436</title><rect class="cls-1" y="59.33" width="51.81" height="4.13"/><rect class="cls-2" x="2.06" y="65.66" width="47.68" height="5.5"/><polygon class="cls-3" points="49.75 98.58 37.43 98.58 37.43 77.49 14.44 77.49 14.41 98.58 2.06 98.58 2.06 73.36 49.75 73.36 49.75 98.58"/><rect class="cls-1" x="16.98" y="80" width="17.97" height="18.62"/><circle class="cls-3" cx="25.9" cy="51.58" r="5.88"/><path class="cls-2" d="M75.35,73.59H57.75a8.17,8.17,0,0,1,.12,11.23H75.35Z" transform="translate(-25.95 -27.69)"/><path class="cls-2" d="M46,73.59H28.36V84.82H45.85A8.16,8.16,0,0,1,46,73.59Z" transform="translate(-25.95 -27.69)"/><polygon class="cls-4" points="0.76 43.7 51.05 43.7 24.97 0 0.76 43.7"/><path class="cls-1" d="M113.86,123v.61c0,1.85-1.11,3-2.75,3a2.73,2.73,0,0,1-2.71-3V111.88c-1.93-.12-2.91-.94-2.91-2.46a2.47,2.47,0,0,1,2.75-2.46h.16v-.49c0-2.55.21-3.49.74-4.52a5.48,5.48,0,0,1,5.13-3c2.83,0,5.17,1.72,5.17,3.86a2.69,2.69,0,0,1-2.5,2.79,2.64,2.64,0,0,1-1.15-.29l-.57-.33a1.06,1.06,0,0,0-.45-.12,1,1,0,0,0-.86,1,5.78,5.78,0,0,0,0,1h1.52c1.68,0,2.75,1,2.75,2.46a2.5,2.5,0,0,1-2.75,2.46h-1.52Z" transform="translate(-25.95 -27.69)"/><path class="cls-1" d="M169.58,116.72a6.42,6.42,0,0,0-.37-2.83,3.35,3.35,0,0,0-3-1.89,3.39,3.39,0,0,0-3.33,3.53v8.09c0,1.85-1.11,3-2.75,3a2.75,2.75,0,0,1-2.71-3v-7.55a9.31,9.31,0,0,1,1.93-6.24,8.8,8.8,0,0,1,6.82-3.28,9.19,9.19,0,0,1,7.68,4.35,10.5,10.5,0,0,1,1.19,5.34v7.39c0,1.85-1.11,3-2.71,3a2.76,2.76,0,0,1-2.75-3v-6.9Z" transform="translate(-25.95 -27.69)"/><path class="cls-1" d="M197,116.6a10.2,10.2,0,1,1-10.14-10.18A10.18,10.18,0,0,1,197,116.6Zm-14.82,0a4.64,4.64,0,1,0,4.68-4.76A4.6,4.6,0,0,0,182.23,116.64Z" transform="translate(-25.95 -27.69)"/><path class="cls-1" d="M105.64,116.6A10.2,10.2,0,1,1,95.5,106.42,10.18,10.18,0,0,1,105.64,116.6Zm-14.82,0a4.64,4.64,0,1,0,4.68-4.76A4.6,4.6,0,0,0,90.82,116.64Z" transform="translate(-25.95 -27.69)"/><path class="cls-1" d="M127.08,101.29v-.62c0-1.85,1.11-3,2.75-3a2.73,2.73,0,0,1,2.71,3v22.7c0,2.05-1,3.28-2.71,3.28a2.76,2.76,0,0,1-2.75-3V101.29Z" transform="translate(-25.95 -27.69)"/><path class="cls-1" d="M219.9,110.27a2,2,0,0,1-2.26,2,7.26,7.26,0,0,1-2.47-.72,7.55,7.55,0,0,0-2.57-.77,1,1,0,0,0-1,.94c0,.9.81,1.53,3.48,2.22a15.06,15.06,0,0,1,3.52,1.23,4.93,4.93,0,0,1,2.57,4.57c0,4-3.1,6.87-7.73,6.87-4.26,0-8-2.51-8-5.29a2.25,2.25,0,0,1,2.26-2.48,4.19,4.19,0,0,1,2.6,1.41,5,5,0,0,0,3.77,1.32,1.59,1.59,0,0,0,1.78-1.46c0-.7-.4-1.21-1.67-1.5a33.25,33.25,0,0,1-5-1.63,5.13,5.13,0,0,1-2.89-4.66,5.83,5.83,0,0,1,3.72-5.41,9.36,9.36,0,0,1,3.32-.53C216.87,106.42,219.9,108.22,219.9,110.27Z" transform="translate(-25.95 -27.69)"/><path class="cls-1" d="M152.57,98.95a3.26,3.26,0,1,1-3.24,3.24A3.22,3.22,0,0,1,152.57,98.95Zm-2.75,11.37v-.62a2.76,2.76,0,0,1,2.75-3c1.6,0,2.67,1.19,2.71,3v13.92a2.76,2.76,0,0,1-2.75,3c-1.6,0-2.67-1.19-2.71-3v-13.3Z" transform="translate(-25.95 -27.69)"/><path class="cls-1" d="M201.25,98.95a3.26,3.26,0,1,1-3.24,3.24A3.22,3.22,0,0,1,201.25,98.95Zm-2.75,11.37v-.62a2.76,2.76,0,0,1,2.75-3c1.6,0,2.67,1.19,2.71,3v13.92a2.76,2.76,0,0,1-2.75,3c-1.6,0-2.67-1.19-2.71-3v-13.3Z" transform="translate(-25.95 -27.69)"/><path class="cls-1" d="M147.68,123v.62a2.76,2.76,0,0,1-2.75,3c-1.72,0-2.75-1.23-2.71-3.28V102a2.73,2.73,0,0,1,2.71-3c1.64,0,2.71,1.19,2.75,3v21Z" transform="translate(-25.95 -27.69)"/><path class="cls-1" d="M140.07,123v.62a2.76,2.76,0,0,1-2.75,3c-1.72,0-2.75-1.23-2.71-3.28V102a2.73,2.73,0,0,1,2.71-3c1.64,0,2.71,1.19,2.75,3v21Z" transform="translate(-25.95 -27.69)"/><path class="cls-1" d="M330.15,67.33a3.31,3.31,0,1,1-3.24-3.24A3.22,3.22,0,0,1,330.15,67.33Zm-.49,20.81v.61c0,1.85-1.11,3-2.71,3a2.76,2.76,0,0,1-2.75-3V74.85c0-1.85,1.11-3,2.71-3a2.76,2.76,0,0,1,2.75,3v13.3Z" transform="translate(-25.95 -27.69)"/><path class="cls-1" d="M361.54,67.79v-.62c0-1.85,1.11-3,2.75-3a2.73,2.73,0,0,1,2.71,3V88.52c0,2.05-1,3.28-2.71,3.28a2.76,2.76,0,0,1-2.75-3v-21Z" transform="translate(-25.95 -27.69)"/><path class="cls-1" d="M284.92,81.72a10.2,10.2,0,1,1-10.14-10.18A10.18,10.18,0,0,1,284.92,81.72Zm-14.82,0A4.64,4.64,0,1,0,274.78,77,4.6,4.6,0,0,0,270.1,81.76Z" transform="translate(-25.95 -27.69)"/><path class="cls-1" d="M307.77,95.6v.61c0,1.89-1.07,3-2.71,3a2.74,2.74,0,0,1-2.75-3V75.16a4.16,4.16,0,0,1,.41-2.38,2.43,2.43,0,0,1,2.22-1.15,2.5,2.5,0,0,1,2.59,2,7.72,7.72,0,0,1,5.58-2.09c5.46,0,9.48,4.31,9.48,10.14s-4,10.1-9.36,10.1a8.09,8.09,0,0,1-5.46-1.93Zm9.12-13.92a4.62,4.62,0,1,0-4.64,4.56A4.62,4.62,0,0,0,316.89,81.69Z" transform="translate(-25.95 -27.69)"/><path class="cls-1" d="M334.25,69.18v-.61c0-1.89,1.1-3,2.75-3a2.75,2.75,0,0,1,2.71,3V72.1h1.19a2.47,2.47,0,1,1,0,4.92H339.7V88.76c0,1.85-1.11,3-2.75,3a2.75,2.75,0,0,1-2.71-3V77H334c-1.77,0-2.83-.94-2.83-2.46s1.11-2.5,3.12-2.46Z" transform="translate(-25.95 -27.69)"/><path class="cls-1" d="M260.45,63.88c-1.64,0-2.71,1.19-2.75,3v7.91H247.5V66.92a2.73,2.73,0,0,0-2.71-3c-1.64,0-2.71,1.19-2.75,3V88.74a2.76,2.76,0,0,0,2.75,3c1.72,0,2.75-1.23,2.71-3.28v-8.2h10.2v8.45a2.76,2.76,0,0,0,2.75,3c1.72,0,2.75-1.23,2.71-3.28V66.92A2.73,2.73,0,0,0,260.45,63.88Z" transform="translate(-25.95 -27.69)"/><path class="cls-1" d="M349.39,91.79c-3.82,0-6.61-3.08-6.61-7a6.92,6.92,0,0,1,7-7.19,8.4,8.4,0,0,1,4.07,1.15c0-2-.7-2.75-2.42-2.75a7.09,7.09,0,0,0-1.48.2l-1.32.37a5.33,5.33,0,0,1-1.69.33,2.06,2.06,0,0,1-2.14-2.18c0-2.14,2.67-3.53,6.53-3.53a9.09,9.09,0,0,1,6.41,2.18c1.23,1.27,1.73,3.12,1.69,6.29v8.42a3.64,3.64,0,0,1-.62,2.59,2.7,2.7,0,0,1-2.22,1.07A2.65,2.65,0,0,1,354,90,7.24,7.24,0,0,1,349.39,91.79Zm1.53-10.09a2.86,2.86,0,1,0,.09,5.71,2.71,2.71,0,0,0,2.79-2.77A2.84,2.84,0,0,0,350.92,81.7Z" transform="translate(-25.95 -27.69)"/><path class="cls-1" d="M299.63,75.36a2,2,0,0,1-2.26,2,7.19,7.19,0,0,1-2.47-.72,7.58,7.58,0,0,0-2.57-.77,1,1,0,0,0-1,.94c0,.9.81,1.53,3.48,2.22a15.08,15.08,0,0,1,3.53,1.23,4.93,4.93,0,0,1,2.57,4.57c0,4-3.1,6.87-7.73,6.87-4.26,0-8-2.51-8-5.29A2.25,2.25,0,0,1,287.45,84a4.21,4.21,0,0,1,2.6,1.41,5,5,0,0,0,3.77,1.32,1.59,1.59,0,0,0,1.79-1.46c0-.7-.41-1.21-1.67-1.5a33.27,33.27,0,0,1-5-1.63,5.13,5.13,0,0,1-2.89-4.66A5.84,5.84,0,0,1,289.79,72a9.36,9.36,0,0,1,3.32-.53C296.6,71.51,299.63,73.31,299.63,75.36Z" transform="translate(-25.95 -27.69)"/><path class="cls-1" d="M161.17,67.68v-.62c0-1.85,1.11-3,2.71-3a2.76,2.76,0,0,1,2.75,3V88.12a4.14,4.14,0,0,1-.41,2.38A2.38,2.38,0,0,1,164,91.69a2.53,2.53,0,0,1-2.59-2,7.73,7.73,0,0,1-5.58,2.09c-5.46,0-9.48-4.31-9.48-10.14s4-10.1,9.36-10.1a8.25,8.25,0,0,1,5.46,1.89Zm-9.11,14a4.62,4.62,0,1,0,4.64-4.56A4.64,4.64,0,0,0,152.05,81.64Z" transform="translate(-25.95 -27.69)"/><path class="cls-1" d="M121.23,71.67a8.14,8.14,0,0,1,7.06,3.69c1.07,1.64,1.31,2.71,1.31,5.42v8c0,1.85-1.11,3-2.75,3a2.73,2.73,0,0,1-2.71-3V81.32a4.61,4.61,0,0,0-.45-2.42,3.1,3.1,0,0,0-2.79-1.72,3.29,3.29,0,0,0-2.79,1.56,5,5,0,0,0-.53,2.59v7.43c0,1.85-1.07,3-2.71,3a2.76,2.76,0,0,1-2.75-3V67.15c0-1.85,1.11-3,2.75-3a2.73,2.73,0,0,1,2.71,3v5.5A6.36,6.36,0,0,1,121.23,71.67Z" transform="translate(-25.95 -27.69)"/><path class="cls-1" d="M137.64,67.32a3.31,3.31,0,1,1-3.24-3.24A3.22,3.22,0,0,1,137.64,67.32Zm-.49,20.81v.62c0,1.85-1.11,3-2.71,3a2.76,2.76,0,0,1-2.75-3V74.83c0-1.85,1.11-3,2.71-3a2.76,2.76,0,0,1,2.75,3v13.3Z" transform="translate(-25.95 -27.69)"/><path class="cls-1" d="M139.28,67.77v-.62c0-1.85,1.11-3,2.75-3a2.73,2.73,0,0,1,2.71,3V88.5c0,2.05-1,3.28-2.71,3.28a2.76,2.76,0,0,1-2.75-3v-21Z" transform="translate(-25.95 -27.69)"/><path class="cls-1" d="M213.67,81.85A6.39,6.39,0,0,0,213.3,79a3.34,3.34,0,0,0-3-1.89A3.39,3.39,0,0,0,207,80.66v8.09c0,1.85-1.11,3-2.75,3a2.75,2.75,0,0,1-2.71-3V81.19A9.31,9.31,0,0,1,203.45,75a8.81,8.81,0,0,1,6.82-3.28A9.19,9.19,0,0,1,217.94,76a10.5,10.5,0,0,1,1.19,5.34v7.39c0,1.85-1.11,3-2.71,3a2.76,2.76,0,0,1-2.75-3v-6.9Z" transform="translate(-25.95 -27.69)"/><path class="cls-1" d="M178.07,71.67A3.47,3.47,0,0,1,181.6,75a3.26,3.26,0,0,1-3.28,3.25c-.78,0-.9-.08-2-.7a2.1,2.1,0,0,0-1.07-.37c-.86,0-1.19.7-1.19,2.5v9c0,1.85-1.07,3-2.71,3a2.76,2.76,0,0,1-2.75-3v-13c0-1.6,0-2,.37-2.54a2.6,2.6,0,0,1,2.34-1.44,2.73,2.73,0,0,1,2.5,1.6A6.49,6.49,0,0,1,178.07,71.67Z" transform="translate(-25.95 -27.69)"/><path class="cls-1" d="M108.27,66.91h0c.28.22.54.46.8.7C108.83,67.4,108.57,67.16,108.27,66.91Z" transform="translate(-25.95 -27.69)"/><path class="cls-1" d="M107.7,82.34a3,3,0,0,0-2.12.91l-.39.36-.08.07a8.33,8.33,0,1,1-.36-12.24h0l.51.48.09.09a3,3,0,0,0,2.12.91,2.8,2.8,0,0,0,2.83-2.8,3.36,3.36,0,0,0-1.25-2.5c-.26-.24-.53-.48-.8-.7a14.58,14.58,0,0,0-9-3.34,14.1,14.1,0,1,0,9.28,24.77h0A8.42,8.42,0,0,0,109.88,87a2.92,2.92,0,0,0,.67-1.85A2.8,2.8,0,0,0,107.7,82.34Z" transform="translate(-25.95 -27.69)"/><path class="cls-1" d="M191.49,86.82a6.92,6.92,0,0,0,3.7-1.42,2.77,2.77,0,0,1,1.73-.66,2.22,2.22,0,0,1,2.31,2.32c-.05,1.15-.62,2.06-2.06,3.06a10.11,10.11,0,0,1-5.61,1.69,10.4,10.4,0,0,1-10.24-10.24,10.23,10.23,0,0,1,10.07-10.11c4.46,0,8.63,3.26,8.63,6.85,0,1.2-.62,1.94-2.27,2.68l-9.94,4.38A5.17,5.17,0,0,0,191.49,86.82Zm0-10.63a5.36,5.36,0,0,0-5.46,5.76l9-3.87A4.36,4.36,0,0,0,191.52,76.18Z" transform="translate(-25.95 -27.69)"/><path class="cls-1" d="M235.06,75.39a2,2,0,0,1-2.26,2,7.22,7.22,0,0,1-2.47-.72,7.58,7.58,0,0,0-2.57-.77,1,1,0,0,0-1,.94c0,.9.81,1.53,3.48,2.22a15.11,15.11,0,0,1,3.53,1.23,4.93,4.93,0,0,1,2.57,4.57c0,4-3.1,6.87-7.73,6.87-4.26,0-8-2.51-8-5.3A2.25,2.25,0,0,1,222.88,84a4.21,4.21,0,0,1,2.6,1.41,5,5,0,0,0,3.76,1.32A1.59,1.59,0,0,0,231,85.27c0-.7-.41-1.21-1.67-1.5a33.31,33.31,0,0,1-5-1.63,5.13,5.13,0,0,1-2.89-4.66,5.83,5.83,0,0,1,3.72-5.41,9.35,9.35,0,0,1,3.32-.53C232,71.54,235.06,73.34,235.06,75.39Z" transform="translate(-25.95 -27.69)"/><path class="cls-1" d="M218.8,69.87a2.92,2.92,0,0,1-1.9-2.79A3.09,3.09,0,0,1,220,64a3,3,0,0,1,3,3,4.58,4.58,0,0,1-.39,1.67l-1.12,3c-.39,1.08-.81,1.51-1.55,1.51a1.54,1.54,0,0,1-1.47-1.36,2.86,2.86,0,0,1,.31-1.16L219,70Z" transform="translate(-25.95 -27.69)"/><path class="cls-4" d="M95.92,56.84A11,11,0,0,1,91.64,56a10,10,0,0,1-3.34-2.25,10.41,10.41,0,0,1-2.18-3.39,11.67,11.67,0,0,1,0-8.44,10.42,10.42,0,0,1,2.18-3.39,10,10,0,0,1,3.34-2.25,11.58,11.58,0,0,1,8.55,0,10,10,0,0,1,3.34,2.25,10.44,10.44,0,0,1,2.18,3.39,11.67,11.67,0,0,1,0,8.44,10.42,10.42,0,0,1-2.18,3.39A10,10,0,0,1,100.19,56,11,11,0,0,1,95.92,56.84Zm0-2.58a7.38,7.38,0,0,0,5.57-2.38A7.65,7.65,0,0,0,103,49.31,9.32,9.32,0,0,0,103,43a7.66,7.66,0,0,0-1.55-2.57,7.61,7.61,0,0,0-11.13,0A7.64,7.64,0,0,0,88.8,43a9.32,9.32,0,0,0,0,6.28,7.63,7.63,0,0,0,1.55,2.57,7.38,7.38,0,0,0,5.57,2.38Z" transform="translate(-25.95 -27.69)"/><path class="cls-4" d="M109.63,52.08a4.52,4.52,0,0,0,1.91,1.65,5.7,5.7,0,0,0,2.4.53,4.88,4.88,0,0,0,1.41-.22,4.28,4.28,0,0,0,1.31-.65,3.53,3.53,0,0,0,1-1.06,2.83,2.83,0,0,0,.37-1.46,2.2,2.2,0,0,0-.75-1.79,6.47,6.47,0,0,0-1.85-1q-1.1-.42-2.41-.8a9.79,9.79,0,0,1-2.41-1.08,5.89,5.89,0,0,1-1.85-1.85,5.76,5.76,0,0,1-.75-3.14,5.42,5.42,0,0,1,1.61-3.73A6.73,6.73,0,0,1,111.71,36a8,8,0,0,1,3.14-.56,11,11,0,0,1,3.19.46,5.47,5.47,0,0,1,2.67,1.86l-2.24,2A3.72,3.72,0,0,0,117,38.56a4.63,4.63,0,0,0-2.15-.49,5.22,5.22,0,0,0-1.91.3,3.43,3.43,0,0,0-1.22.77,2.73,2.73,0,0,0-.65,1,3.12,3.12,0,0,0-.19,1,2.56,2.56,0,0,0,.75,2,5.79,5.79,0,0,0,1.85,1.12,22.23,22.23,0,0,0,2.41.77,10.32,10.32,0,0,1,2.41,1,5.62,5.62,0,0,1,1.85,1.66,4.9,4.9,0,0,1,.75,2.88,6.07,6.07,0,0,1-.56,2.64,5.85,5.85,0,0,1-1.51,2,6.66,6.66,0,0,1-2.24,1.23,8.65,8.65,0,0,1-2.75.43,10,10,0,0,1-3.7-.69A6.08,6.08,0,0,1,107.37,54Z" transform="translate(-25.95 -27.69)"/><path class="cls-4" d="M123.55,36h12.77v2.58h-10V45h9.33v2.58h-9.33v8.78h-2.75Z" transform="translate(-25.95 -27.69)"/><path class="cls-4" d="M145.13,36h2.75v8.44h10.53V36h2.75V56.32h-2.75V47H147.88v9.3h-2.75Z" transform="translate(-25.95 -27.69)"/><path class="cls-4" d="M166.25,50.47a3.4,3.4,0,0,0,.39,1.62,4,4,0,0,0,1,1.25,4.69,4.69,0,0,0,1.46.8,5.24,5.24,0,0,0,1.72.29,3.85,3.85,0,0,0,2.09-.56,6.76,6.76,0,0,0,1.64-1.48l2,1.49a7.18,7.18,0,0,1-6,2.78,7.5,7.5,0,0,1-2.91-.54,6.34,6.34,0,0,1-2.21-1.51A6.68,6.68,0,0,1,164,52.35a8,8,0,0,1-.49-2.83A7.42,7.42,0,0,1,164,46.7a7,7,0,0,1,1.46-2.27,6.68,6.68,0,0,1,2.22-1.51,7.16,7.16,0,0,1,2.81-.55,6.72,6.72,0,0,1,3.06.63,6,6,0,0,1,2.05,1.65,6.52,6.52,0,0,1,1.16,2.3,9.56,9.56,0,0,1,.36,2.6v.92Zm8.15-2.07a5.47,5.47,0,0,0-.27-1.58,3.49,3.49,0,0,0-.73-1.25,3.37,3.37,0,0,0-1.22-.83,4.47,4.47,0,0,0-1.71-.3,4.14,4.14,0,0,0-1.74.36,4.23,4.23,0,0,0-1.33.93,4.3,4.3,0,0,0-.85,1.28,3.51,3.51,0,0,0-.3,1.39Z" transform="translate(-25.95 -27.69)"/><path class="cls-4" d="M179.59,44.39a7.19,7.19,0,0,1,2.52-1.51,8.65,8.65,0,0,1,2.87-.5,7.88,7.88,0,0,1,2.57.37,5,5,0,0,1,1.76,1,4,4,0,0,1,1,1.45,4.53,4.53,0,0,1,.33,1.71v6.94q0,.72,0,1.32t.09,1.15h-2.3q-.08-1-.09-2.07h-.06a5,5,0,0,1-2,1.87,6.43,6.43,0,0,1-2.73.54,6.25,6.25,0,0,1-1.81-.26,4.41,4.41,0,0,1-1.51-.77,3.72,3.72,0,0,1-1-1.28,4.4,4.4,0,0,1,.22-4,4.45,4.45,0,0,1,1.61-1.45,7.76,7.76,0,0,1,2.38-.8,16.56,16.56,0,0,1,2.91-.24h1.89v-.57a2.85,2.85,0,0,0-.8-2,2.88,2.88,0,0,0-1-.66,3.81,3.81,0,0,0-1.43-.24,5.29,5.29,0,0,0-1.31.14,5.8,5.8,0,0,0-1,.36,4.49,4.49,0,0,0-.83.5l-.72.54Zm7.29,5.39a18.1,18.1,0,0,0-1.88.1,7.38,7.38,0,0,0-1.75.39,3.38,3.38,0,0,0-1.29.8,1.81,1.81,0,0,0-.5,1.32,1.87,1.87,0,0,0,.79,1.69,3.86,3.86,0,0,0,2.14.52,4.15,4.15,0,0,0,1.81-.36,3.4,3.4,0,0,0,1.21-.93,3.64,3.64,0,0,0,.66-1.28,5.05,5.05,0,0,0,.2-1.39v-.86Z" transform="translate(-25.95 -27.69)"/><path class="cls-4" d="M193.19,34.63h2.58V56.32h-2.58Z" transform="translate(-25.95 -27.69)"/><path class="cls-4" d="M206.45,45h-3.7v6.17q0,.57,0,1.13a3,3,0,0,0,.22,1,1.63,1.63,0,0,0,.57.72,2,2,0,0,0,1.13.27,5.49,5.49,0,0,0,.95-.09,2.74,2.74,0,0,0,.89-.32v2.35a3.37,3.37,0,0,1-1.19.36,9,9,0,0,1-1.13.1,5.19,5.19,0,0,1-2.31-.42,2.83,2.83,0,0,1-1.21-1.08,3.48,3.48,0,0,1-.46-1.48q-.07-.82-.07-1.65V45h-3V42.72h3V38.9h2.58v3.82h3.7Z" transform="translate(-25.95 -27.69)"/><path class="cls-4" d="M208.34,34.63h2.58V44.82H211a3.81,3.81,0,0,1,1.69-1.76,5.61,5.61,0,0,1,2.78-.67,5.92,5.92,0,0,1,1.88.3,4.25,4.25,0,0,1,1.58.93A4.5,4.5,0,0,1,220,45.23a6.19,6.19,0,0,1,.4,2.34v8.75h-2.58v-8a4.55,4.55,0,0,0-.26-1.62,3,3,0,0,0-.69-1.09,2.6,2.6,0,0,0-1-.6,3.66,3.66,0,0,0-1.16-.19,4.22,4.22,0,0,0-1.49.26,3.11,3.11,0,0,0-1.21.82,3.86,3.86,0,0,0-.8,1.42,6.46,6.46,0,0,0-.29,2v7h-2.58Z" transform="translate(-25.95 -27.69)"/><path class="cls-4" d="M237.67,40.4a5.69,5.69,0,0,0-2.18-1.72,6.5,6.5,0,0,0-2.73-.6,7.31,7.31,0,0,0-3.11.65,7.18,7.18,0,0,0-2.38,1.76,8,8,0,0,0-1.54,2.63,9.42,9.42,0,0,0-.54,3.23,8.9,8.9,0,0,0,.52,3,7.61,7.61,0,0,0,1.49,2.52,7,7,0,0,0,2.38,1.72,7.69,7.69,0,0,0,3.18.63,6.33,6.33,0,0,0,3.07-.72,6.59,6.59,0,0,0,2.24-2l2.32,1.75a9.3,9.3,0,0,1-.8.9,8.08,8.08,0,0,1-1.52,1.18,10.78,10.78,0,0,1-2.28,1,9.76,9.76,0,0,1-3.08.44,10,10,0,0,1-4.35-.92,10.64,10.64,0,0,1-6.1-9.58A11.9,11.9,0,0,1,223,42a10.27,10.27,0,0,1,2.17-3.44,9.68,9.68,0,0,1,3.34-2.25,11.2,11.2,0,0,1,4.3-.8,10.54,10.54,0,0,1,3.95.77A7.36,7.36,0,0,1,240,38.65Z" transform="translate(-25.95 -27.69)"/><path class="cls-4" d="M242.4,44.39a7.19,7.19,0,0,1,2.52-1.51,8.65,8.65,0,0,1,2.87-.5,7.88,7.88,0,0,1,2.57.37,5,5,0,0,1,1.76,1,4,4,0,0,1,1,1.45,4.53,4.53,0,0,1,.33,1.71v6.94q0,.72,0,1.32t.09,1.15h-2.3q-.08-1-.09-2.07h-.06a5,5,0,0,1-2,1.87,6.43,6.43,0,0,1-2.73.54,6.25,6.25,0,0,1-1.81-.26,4.41,4.41,0,0,1-1.51-.77,3.72,3.72,0,0,1-1-1.28,4.4,4.4,0,0,1,.22-4,4.45,4.45,0,0,1,1.61-1.45,7.76,7.76,0,0,1,2.38-.8,16.57,16.57,0,0,1,2.91-.24h1.89v-.57a2.85,2.85,0,0,0-.8-2,2.88,2.88,0,0,0-1-.66,3.81,3.81,0,0,0-1.43-.24,5.29,5.29,0,0,0-1.31.14,5.8,5.8,0,0,0-1,.36,4.49,4.49,0,0,0-.83.5l-.72.54Zm7.29,5.39a18.1,18.1,0,0,0-1.88.1,7.39,7.39,0,0,0-1.75.39,3.38,3.38,0,0,0-1.29.8,1.81,1.81,0,0,0-.5,1.32,1.87,1.87,0,0,0,.79,1.69,3.86,3.86,0,0,0,2.14.52,4.15,4.15,0,0,0,1.81-.36,3.4,3.4,0,0,0,1.21-.93,3.64,3.64,0,0,0,.66-1.28,5.05,5.05,0,0,0,.2-1.39v-.86Z" transform="translate(-25.95 -27.69)"/><path class="cls-4" d="M255.8,42.72h2.58v2.09h.06a3.72,3.72,0,0,1,.69-1,4.63,4.63,0,0,1,1-.76,5.1,5.1,0,0,1,1.16-.5,4.44,4.44,0,0,1,1.26-.19,3.62,3.62,0,0,1,1.15.17l-.12,2.78-.63-.14a3.54,3.54,0,0,0-.63-.06,3.8,3.8,0,0,0-2.9,1.06,4.66,4.66,0,0,0-1,3.3v6.83H255.8Z" transform="translate(-25.95 -27.69)"/><path class="cls-4" d="M266.93,50.47a3.4,3.4,0,0,0,.39,1.62,4,4,0,0,0,1,1.25,4.69,4.69,0,0,0,1.46.8,5.24,5.24,0,0,0,1.72.29,3.85,3.85,0,0,0,2.09-.56,6.76,6.76,0,0,0,1.64-1.48l2,1.49a7.18,7.18,0,0,1-6,2.78,7.5,7.5,0,0,1-2.91-.54,6.34,6.34,0,0,1-2.21-1.51,6.68,6.68,0,0,1-1.39-2.27,8,8,0,0,1-.49-2.83,7.42,7.42,0,0,1,.53-2.83,7,7,0,0,1,1.46-2.27,6.68,6.68,0,0,1,2.22-1.51,7.16,7.16,0,0,1,2.81-.55,6.72,6.72,0,0,1,3.06.63,6,6,0,0,1,2.05,1.65,6.52,6.52,0,0,1,1.16,2.3,9.56,9.56,0,0,1,.36,2.6v.92Zm8.15-2.07a5.47,5.47,0,0,0-.27-1.58,3.49,3.49,0,0,0-.73-1.25,3.37,3.37,0,0,0-1.22-.83,4.47,4.47,0,0,0-1.71-.3,4.14,4.14,0,0,0-1.74.36,4.23,4.23,0,0,0-1.33.93,4.3,4.3,0,0,0-.85,1.28,3.51,3.51,0,0,0-.3,1.39Z" transform="translate(-25.95 -27.69)"/></svg>