<svg id="Layer_1" data-name="Layer 1" xmlns="http://www.w3.org/2000/svg" viewBox="0 0 341.04 98.97"><defs><style>.cls-1{fill:#009ddd}.cls-2{fill:#fdb515}.cls-3{fill:#d0202f}.cls-4{fill:#6f2b1d}</style></defs><path class="cls-1" d="M0 59.33h51.81v4.13H0z"/><path class="cls-2" d="M2.06 65.66h47.68v5.5H2.06z"/><path class="cls-3" d="M49.75 98.58H37.43V77.49H14.44l-.03 21.09H2.06V73.36h47.69v25.22z"/><path class="cls-1" d="M16.98 80h17.97v18.62H16.98z"/><circle class="cls-3" cx="25.9" cy="51.58" r="5.88"/><path class="cls-2" d="M75.35 73.59h-17.6a8.17 8.17 0 01.12 11.23h17.48zm-29.35 0H28.36v11.23h17.49A8.16 8.16 0 0146 73.59z" transform="translate(-25.95 -27.69)"/><path class="cls-4" d="M.76 43.7h50.29L24.97 0 .76 43.7z"/><path class="cls-1" d="M113.86 123v.61c0 1.85-1.11 3-2.75 3a2.73 2.73 0 01-2.71-3v-11.73c-1.93-.12-2.91-.94-2.91-2.46a2.47 2.47 0 012.75-2.46h.16v-.49c0-2.55.21-3.49.74-4.52a5.48 5.48 0 015.13-3c2.83 0 5.17 1.72 5.17 3.86a2.69 2.69 0 01-2.5 2.79 2.64 2.64 0 01-1.15-.29l-.57-.33a1.06 1.06 0 00-.45-.12 1 1 0 00-.86 1 5.78 5.78 0 000 1h1.52c1.68 0 2.75 1 2.75 2.46a2.5 2.5 0 01-2.75 2.46h-1.52zm55.72-6.28a6.42 6.42 0 00-.37-2.83 3.35 3.35 0 00-3-1.89 3.39 3.39 0 00-3.33 3.53v8.09c0 1.85-1.11 3-2.75 3a2.75 2.75 0 01-2.71-3v-7.55a9.31 9.31 0 011.93-6.24 8.8 8.8 0 016.82-3.28 9.19 9.19 0 017.68 4.35 10.5 10.5 0 011.19 5.34v7.39c0 1.85-1.11 3-2.71 3a2.76 2.76 0 01-2.75-3v-6.9z" transform="translate(-25.95 -27.69)"/><path class="cls-1" d="M197 116.6a10.2 10.2 0 11-10.14-10.18A10.18 10.18 0 01197 116.6zm-14.82 0a4.64 4.64 0 104.68-4.76 4.6 4.6 0 00-4.63 4.8zm-76.54 0a10.2 10.2 0 11-10.14-10.18 10.18 10.18 0 0110.14 10.18zm-14.82 0a4.64 4.64 0 104.68-4.76 4.6 4.6 0 00-4.68 4.8zm36.26-15.31v-.62c0-1.85 1.11-3 2.75-3a2.73 2.73 0 012.71 3v22.7c0 2.05-1 3.28-2.71 3.28a2.76 2.76 0 01-2.75-3v-22.36zm92.82 8.98a2 2 0 01-2.26 2 7.26 7.26 0 01-2.47-.72 7.55 7.55 0 00-2.57-.77 1 1 0 00-1 .94c0 .9.81 1.53 3.48 2.22a15.06 15.06 0 013.52 1.23 4.93 4.93 0 012.57 4.57c0 4-3.1 6.87-7.73 6.87-4.26 0-8-2.51-8-5.29a2.25 2.25 0 012.26-2.48 4.19 4.19 0 012.6 1.41 5 5 0 003.77 1.32 1.59 1.59 0 001.78-1.46c0-.7-.4-1.21-1.67-1.5a33.25 33.25 0 01-5-1.63 5.13 5.13 0 01-2.89-4.66 5.83 5.83 0 013.72-5.41 9.36 9.36 0 013.32-.53c3.54.04 6.57 1.84 6.57 3.89zm-67.33-11.32a3.26 3.26 0 11-3.24 3.24 3.22 3.22 0 013.24-3.24zm-2.75 11.37v-.62a2.76 2.76 0 012.75-3c1.6 0 2.67 1.19 2.71 3v13.92a2.76 2.76 0 01-2.75 3c-1.6 0-2.67-1.19-2.71-3v-13.3zm51.43-11.37a3.26 3.26 0 11-3.24 3.24 3.22 3.22 0 013.24-3.24zm-2.75 11.37v-.62a2.76 2.76 0 012.75-3c1.6 0 2.67 1.19 2.71 3v13.92a2.76 2.76 0 01-2.75 3c-1.6 0-2.67-1.19-2.71-3v-13.3zM147.68 123v.62a2.76 2.76 0 01-2.75 3c-1.72 0-2.75-1.23-2.71-3.28V102a2.73 2.73 0 012.71-3c1.64 0 2.71 1.19 2.75 3v21zm-7.61 0v.62a2.76 2.76 0 01-2.75 3c-1.72 0-2.75-1.23-2.71-3.28V102a2.73 2.73 0 012.71-3c1.64 0 2.71 1.19 2.75 3v21zm190.08-55.67a3.31 3.31 0 11-3.24-3.24 3.22 3.22 0 013.24 3.24zm-.49 20.81v.61c0 1.85-1.11 3-2.71 3a2.76 2.76 0 01-2.75-3v-13.9c0-1.85 1.11-3 2.71-3a2.76 2.76 0 012.75 3v13.3zm31.88-20.35v-.62c0-1.85 1.11-3 2.75-3a2.73 2.73 0 012.71 3v21.35c0 2.05-1 3.28-2.71 3.28a2.76 2.76 0 01-2.75-3v-21zm-76.62 13.93a10.2 10.2 0 11-10.14-10.18 10.18 10.18 0 0110.14 10.18zm-14.82 0a4.64 4.64 0 104.68-4.72 4.6 4.6 0 00-4.68 4.76zm37.67 13.88v.61c0 1.89-1.07 3-2.71 3a2.74 2.74 0 01-2.75-3V75.16a4.16 4.16 0 01.41-2.38 2.43 2.43 0 012.22-1.15 2.5 2.5 0 012.59 2 7.72 7.72 0 015.58-2.09c5.46 0 9.48 4.31 9.48 10.14s-4 10.1-9.36 10.1a8.09 8.09 0 01-5.46-1.93zm9.12-13.92a4.62 4.62 0 10-4.64 4.56 4.62 4.62 0 004.64-4.55zm17.36-12.5v-.61c0-1.89 1.1-3 2.75-3a2.75 2.75 0 012.71 3v3.53h1.19a2.47 2.47 0 110 4.92h-1.2v11.74c0 1.85-1.11 3-2.75 3a2.75 2.75 0 01-2.71-3V77H334c-1.77 0-2.83-.94-2.83-2.46s1.11-2.5 3.12-2.46z" transform="translate(-25.95 -27.69)"/><path class="cls-1" d="M260.45 63.88c-1.64 0-2.71 1.19-2.75 3v7.91h-10.2v-7.87a2.73 2.73 0 00-2.71-3c-1.64 0-2.71 1.19-2.75 3v21.82a2.76 2.76 0 002.75 3c1.72 0 2.75-1.23 2.71-3.28v-8.2h10.2v8.45a2.76 2.76 0 002.75 3c1.72 0 2.75-1.23 2.71-3.28V66.92a2.73 2.73 0 00-2.71-3.04zm88.94 27.91c-3.82 0-6.61-3.08-6.61-7a6.92 6.92 0 017-7.19 8.4 8.4 0 014.07 1.15c0-2-.7-2.75-2.42-2.75a7.09 7.09 0 00-1.48.2l-1.32.37a5.33 5.33 0 01-1.69.33 2.06 2.06 0 01-2.14-2.18c0-2.14 2.67-3.53 6.53-3.53a9.09 9.09 0 016.41 2.18c1.23 1.27 1.73 3.12 1.69 6.29v8.42a3.64 3.64 0 01-.62 2.59 2.7 2.7 0 01-2.22 1.07A2.65 2.65 0 01354 90a7.24 7.24 0 01-4.61 1.79zm1.53-10.09a2.86 2.86 0 10.09 5.71 2.71 2.71 0 002.79-2.77 2.84 2.84 0 00-2.88-2.94zm-51.29-6.34a2 2 0 01-2.26 2 7.19 7.19 0 01-2.47-.72 7.58 7.58 0 00-2.57-.77 1 1 0 00-1 .94c0 .9.81 1.53 3.48 2.22a15.08 15.08 0 013.53 1.23 4.93 4.93 0 012.57 4.57c0 4-3.1 6.87-7.73 6.87-4.26 0-8-2.51-8-5.29a2.25 2.25 0 012.27-2.41 4.21 4.21 0 012.6 1.41 5 5 0 003.77 1.32 1.59 1.59 0 001.79-1.46c0-.7-.41-1.21-1.67-1.5a33.27 33.27 0 01-5-1.63 5.13 5.13 0 01-2.89-4.66 5.84 5.84 0 013.74-5.48 9.36 9.36 0 013.32-.53c3.49.04 6.52 1.84 6.52 3.89zm-138.46-7.68v-.62c0-1.85 1.11-3 2.71-3a2.76 2.76 0 012.75 3v21.06a4.14 4.14 0 01-.41 2.38 2.38 2.38 0 01-2.22 1.19 2.53 2.53 0 01-2.59-2 7.73 7.73 0 01-5.58 2.09c-5.46 0-9.48-4.31-9.48-10.14s4-10.1 9.36-10.1a8.25 8.25 0 015.46 1.89zm-9.11 14a4.62 4.62 0 104.64-4.56 4.64 4.64 0 00-4.65 4.52zm-30.83-10.01a8.14 8.14 0 017.06 3.69c1.07 1.64 1.31 2.71 1.31 5.42v8c0 1.85-1.11 3-2.75 3a2.73 2.73 0 01-2.71-3v-7.46a4.61 4.61 0 00-.45-2.42 3.1 3.1 0 00-2.79-1.72 3.29 3.29 0 00-2.79 1.56 5 5 0 00-.53 2.59v7.43c0 1.85-1.07 3-2.71 3a2.76 2.76 0 01-2.75-3V67.15c0-1.85 1.11-3 2.75-3a2.73 2.73 0 012.71 3v5.5a6.36 6.36 0 013.65-.98zm16.41-4.35a3.31 3.31 0 11-3.24-3.24 3.22 3.22 0 013.24 3.24zm-.49 20.81v.62c0 1.85-1.11 3-2.71 3a2.76 2.76 0 01-2.75-3V74.83c0-1.85 1.11-3 2.71-3a2.76 2.76 0 012.75 3v13.3zm2.13-20.36v-.62c0-1.85 1.11-3 2.75-3a2.73 2.73 0 012.71 3V88.5c0 2.05-1 3.28-2.71 3.28a2.76 2.76 0 01-2.75-3v-21zm74.39 14.08a6.39 6.39 0 00-.37-2.85 3.34 3.34 0 00-3-1.89 3.39 3.39 0 00-3.3 3.55v8.09c0 1.85-1.11 3-2.75 3a2.75 2.75 0 01-2.71-3v-7.56a9.31 9.31 0 011.91-6.19 8.81 8.81 0 016.82-3.28 9.19 9.19 0 017.67 4.28 10.5 10.5 0 011.19 5.34v7.39c0 1.85-1.11 3-2.71 3a2.76 2.76 0 01-2.75-3v-6.9zm-35.6-10.18A3.47 3.47 0 01181.6 75a3.26 3.26 0 01-3.28 3.25c-.78 0-.9-.08-2-.7a2.1 2.1 0 00-1.07-.37c-.86 0-1.19.7-1.19 2.5v9c0 1.85-1.07 3-2.71 3a2.76 2.76 0 01-2.75-3v-13c0-1.6 0-2 .37-2.54a2.6 2.6 0 012.34-1.44 2.73 2.73 0 012.5 1.6 6.49 6.49 0 014.26-1.63zm-69.8-4.76c.28.22.54.46.8.7-.24-.21-.5-.45-.8-.7zm-.57 15.43a3 3 0 00-2.12.91l-.39.36-.08.07a8.33 8.33 0 11-.36-12.24l.51.48.09.09a3 3 0 002.12.91 2.8 2.8 0 002.83-2.8 3.36 3.36 0 00-1.25-2.5c-.26-.24-.53-.48-.8-.7a14.58 14.58 0 00-9-3.34 14.1 14.1 0 109.28 24.77 8.42 8.42 0 001.35-1.35 2.92 2.92 0 00.67-1.85 2.8 2.8 0 00-2.85-2.81zm83.79 4.48a6.92 6.92 0 003.7-1.42 2.77 2.77 0 011.73-.66 2.22 2.22 0 012.31 2.32c-.05 1.15-.62 2.06-2.06 3.06a10.11 10.11 0 01-5.61 1.69 10.4 10.4 0 01-10.24-10.24 10.23 10.23 0 0110.07-10.11c4.46 0 8.63 3.26 8.63 6.85 0 1.2-.62 1.94-2.27 2.68l-9.94 4.38a5.17 5.17 0 003.68 1.45zm0-10.63a5.36 5.36 0 00-5.46 5.76l9-3.87a4.36 4.36 0 00-3.51-1.9zm43.57-.8a2 2 0 01-2.26 2 7.22 7.22 0 01-2.47-.72 7.58 7.58 0 00-2.57-.77 1 1 0 00-1 .94c0 .9.81 1.53 3.48 2.22a15.11 15.11 0 013.53 1.23 4.93 4.93 0 012.57 4.57c0 4-3.1 6.87-7.73 6.87-4.26 0-8-2.51-8-5.3a2.25 2.25 0 012.27-2.43 4.21 4.21 0 012.6 1.41 5 5 0 003.76 1.32 1.59 1.59 0 001.76-1.46c0-.7-.41-1.21-1.67-1.5a33.31 33.31 0 01-5-1.63 5.13 5.13 0 01-2.89-4.66 5.83 5.83 0 013.72-5.41 9.35 9.35 0 013.32-.53c3.52 0 6.58 1.8 6.58 3.85zm-16.26-5.52a2.92 2.92 0 01-1.9-2.79A3.09 3.09 0 01220 64a3 3 0 013 3 4.58 4.58 0 01-.39 1.67l-1.12 3c-.39 1.08-.81 1.51-1.55 1.51a1.54 1.54 0 01-1.47-1.36 2.86 2.86 0 01.31-1.16L219 70z" transform="translate(-25.95 -27.69)"/><path class="cls-4" d="M95.92 56.84a11 11 0 01-4.28-.84 10 10 0 01-3.34-2.25 10.41 10.41 0 01-2.18-3.39 11.67 11.67 0 010-8.44 10.42 10.42 0 012.18-3.39 10 10 0 013.34-2.25 11.58 11.58 0 018.55 0 10 10 0 013.34 2.25 10.44 10.44 0 012.18 3.39 11.67 11.67 0 010 8.44 10.42 10.42 0 01-2.18 3.39 10 10 0 01-3.34 2.25 11 11 0 01-4.27.84zm0-2.58a7.38 7.38 0 005.57-2.38 7.65 7.65 0 001.51-2.57 9.32 9.32 0 000-6.31 7.66 7.66 0 00-1.55-2.57 7.61 7.61 0 00-11.13 0A7.64 7.64 0 0088.8 43a9.32 9.32 0 000 6.28 7.63 7.63 0 001.55 2.57 7.38 7.38 0 005.57 2.38zm13.71-2.18a4.52 4.52 0 001.91 1.65 5.7 5.7 0 002.4.53 4.88 4.88 0 001.41-.22 4.28 4.28 0 001.31-.65 3.53 3.53 0 001-1.06 2.83 2.83 0 00.37-1.46 2.2 2.2 0 00-.75-1.79 6.47 6.47 0 00-1.85-1q-1.1-.42-2.41-.8a9.79 9.79 0 01-2.41-1.08 5.89 5.89 0 01-1.85-1.85 5.76 5.76 0 01-.75-3.14 5.42 5.42 0 011.61-3.73 6.73 6.73 0 012.09-1.48 8 8 0 013.14-.56 11 11 0 013.19.46 5.47 5.47 0 012.67 1.86l-2.24 2a3.72 3.72 0 00-1.47-1.2 4.63 4.63 0 00-2.15-.49 5.22 5.22 0 00-1.91.3 3.43 3.43 0 00-1.22.77 2.73 2.73 0 00-.65 1 3.12 3.12 0 00-.19 1 2.56 2.56 0 00.75 2 5.79 5.79 0 001.85 1.12 22.23 22.23 0 002.41.77 10.32 10.32 0 012.41 1 5.62 5.62 0 011.85 1.66 4.9 4.9 0 01.75 2.88 6.07 6.07 0 01-.56 2.64 5.85 5.85 0 01-1.51 2 6.66 6.66 0 01-2.24 1.23 8.65 8.65 0 01-2.75.43 10 10 0 01-3.7-.69 6.08 6.08 0 01-2.77-2.18zM123.55 36h12.77v2.58h-10V45h9.33v2.58h-9.33v8.78h-2.75zm21.58 0h2.75v8.44h10.53V36h2.75v20.32h-2.75V47h-10.53v9.3h-2.75zm21.12 14.47a3.4 3.4 0 00.39 1.62 4 4 0 001 1.25 4.69 4.69 0 001.46.8 5.24 5.24 0 001.72.29 3.85 3.85 0 002.09-.56 6.76 6.76 0 001.64-1.48l2 1.49a7.18 7.18 0 01-6 2.78 7.5 7.5 0 01-2.91-.54 6.34 6.34 0 01-2.21-1.51 6.68 6.68 0 01-1.43-2.26 8 8 0 01-.49-2.83 7.42 7.42 0 01.49-2.82 7 7 0 011.46-2.27 6.68 6.68 0 012.22-1.51 7.16 7.16 0 012.81-.55 6.72 6.72 0 013.06.63 6 6 0 012.05 1.65 6.52 6.52 0 011.16 2.3 9.56 9.56 0 01.36 2.6v.92zm8.15-2.07a5.47 5.47 0 00-.27-1.58 3.49 3.49 0 00-.73-1.25 3.37 3.37 0 00-1.22-.83 4.47 4.47 0 00-1.71-.3 4.14 4.14 0 00-1.74.36 4.23 4.23 0 00-1.33.93 4.3 4.3 0 00-.85 1.28 3.51 3.51 0 00-.3 1.39zm5.19-4.01a7.19 7.19 0 012.52-1.51 8.65 8.65 0 012.87-.5 7.88 7.88 0 012.57.37 5 5 0 011.76 1 4 4 0 011 1.45 4.53 4.53 0 01.33 1.71v8.26q0 .6.09 1.15h-2.3q-.08-1-.09-2.07h-.06a5 5 0 01-2 1.87 6.43 6.43 0 01-2.73.54 6.25 6.25 0 01-1.81-.26 4.41 4.41 0 01-1.51-.77 3.72 3.72 0 01-1-1.28 4.4 4.4 0 01.22-4 4.45 4.45 0 011.61-1.45 7.76 7.76 0 012.38-.8 16.56 16.56 0 012.91-.24h1.89v-.57a2.85 2.85 0 00-.8-2 2.88 2.88 0 00-1-.66 3.81 3.81 0 00-1.43-.24 5.29 5.29 0 00-1.31.14 5.8 5.8 0 00-1 .36 4.49 4.49 0 00-.83.5l-.72.54zm7.29 5.39a18.1 18.1 0 00-1.88.1 7.38 7.38 0 00-1.75.39 3.38 3.38 0 00-1.29.8 1.81 1.81 0 00-.5 1.32 1.87 1.87 0 00.79 1.69 3.86 3.86 0 002.14.52 4.15 4.15 0 001.81-.36 3.4 3.4 0 001.21-.93 3.64 3.64 0 00.66-1.28 5.05 5.05 0 00.2-1.39v-.86zm6.31-15.15h2.58v21.69h-2.58zM206.45 45h-3.7v7.3a3 3 0 00.22 1 1.63 1.63 0 00.57.72 2 2 0 001.13.27 5.49 5.49 0 00.95-.09 2.74 2.74 0 00.89-.32v2.35a3.37 3.37 0 01-1.19.36 9 9 0 01-1.13.1 5.19 5.19 0 01-2.31-.42 2.83 2.83 0 01-1.21-1.08 3.48 3.48 0 01-.46-1.48q-.07-.82-.07-1.65V45h-3v-2.28h3V38.9h2.58v3.82h3.7zm1.89-10.37h2.58v10.19h.08a3.81 3.81 0 011.69-1.76 5.61 5.61 0 012.78-.67 5.92 5.92 0 011.88.3 4.25 4.25 0 011.58.93 4.5 4.5 0 011.07 1.61 6.19 6.19 0 01.4 2.34v8.75h-2.58v-8a4.55 4.55 0 00-.26-1.62 3 3 0 00-.69-1.09 2.6 2.6 0 00-1-.6 3.66 3.66 0 00-1.16-.19 4.22 4.22 0 00-1.49.26 3.11 3.11 0 00-1.21.82 3.86 3.86 0 00-.8 1.42 6.46 6.46 0 00-.29 2v7h-2.58zm29.33 5.77a5.69 5.69 0 00-2.18-1.72 6.5 6.5 0 00-2.73-.6 7.31 7.31 0 00-3.11.65 7.18 7.18 0 00-2.38 1.76 8 8 0 00-1.54 2.63 9.42 9.42 0 00-.54 3.23 8.9 8.9 0 00.52 3 7.61 7.61 0 001.49 2.52 7 7 0 002.38 1.72 7.69 7.69 0 003.18.63 6.33 6.33 0 003.07-.72 6.59 6.59 0 002.24-2l2.32 1.75a9.3 9.3 0 01-.8.9 8.08 8.08 0 01-1.52 1.18 10.78 10.78 0 01-2.28 1 9.76 9.76 0 01-3.08.44 10 10 0 01-4.35-.92 10.64 10.64 0 01-6.1-9.58A11.9 11.9 0 01223 42a10.27 10.27 0 012.17-3.44 9.68 9.68 0 013.34-2.25 11.2 11.2 0 014.3-.8 10.54 10.54 0 013.95.77 7.36 7.36 0 013.24 2.37zm4.73 3.99a7.19 7.19 0 012.52-1.51 8.65 8.65 0 012.87-.5 7.88 7.88 0 012.57.37 5 5 0 011.76 1 4 4 0 011 1.45 4.53 4.53 0 01.33 1.71v8.26q0 .6.09 1.15h-2.3q-.08-1-.09-2.07h-.06a5 5 0 01-2 1.87 6.43 6.43 0 01-2.73.54 6.25 6.25 0 01-1.81-.26 4.41 4.41 0 01-1.51-.77 3.72 3.72 0 01-1-1.28 4.4 4.4 0 01.22-4 4.45 4.45 0 011.61-1.45 7.76 7.76 0 012.38-.8 16.57 16.57 0 012.91-.24h1.89v-.57a2.85 2.85 0 00-.8-2 2.88 2.88 0 00-1-.66 3.81 3.81 0 00-1.43-.24 5.29 5.29 0 00-1.31.14 5.8 5.8 0 00-1 .36 4.49 4.49 0 00-.83.5l-.72.54zm7.29 5.39a18.1 18.1 0 00-1.88.1 7.39 7.39 0 00-1.75.39 3.38 3.38 0 00-1.29.8 1.81 1.81 0 00-.5 1.32 1.87 1.87 0 00.79 1.69 3.86 3.86 0 002.14.52 4.15 4.15 0 001.81-.36 3.4 3.4 0 001.21-.93 3.64 3.64 0 00.66-1.28 5.05 5.05 0 00.2-1.39v-.86zm6.11-7.06h2.58v2.09h.06a3.72 3.72 0 01.69-1 4.63 4.63 0 011-.76 5.1 5.1 0 011.16-.5 4.44 4.44 0 011.26-.19 3.62 3.62 0 011.15.17l-.12 2.78-.63-.14a3.54 3.54 0 00-.63-.06 3.8 3.8 0 00-2.9 1.06 4.66 4.66 0 00-1 3.3v6.83h-2.62zm11.13 7.75a3.4 3.4 0 00.39 1.62 4 4 0 001 1.25 4.69 4.69 0 001.46.8 5.24 5.24 0 001.72.29 3.85 3.85 0 002.09-.56 6.76 6.76 0 001.64-1.48l2 1.49a7.18 7.18 0 01-6 2.78 7.5 7.5 0 01-2.91-.54 6.34 6.34 0 01-2.21-1.51 6.68 6.68 0 01-1.39-2.27 8 8 0 01-.49-2.83 7.42 7.42 0 01.53-2.83 7 7 0 011.46-2.27 6.68 6.68 0 012.22-1.51 7.16 7.16 0 012.81-.55 6.72 6.72 0 013.06.63 6 6 0 012.05 1.65 6.52 6.52 0 011.16 2.3 9.56 9.56 0 01.36 2.6v.92zm8.15-2.07a5.47 5.47 0 00-.27-1.58 3.49 3.49 0 00-.73-1.25 3.37 3.37 0 00-1.22-.83 4.47 4.47 0 00-1.71-.3 4.14 4.14 0 00-1.74.36 4.23 4.23 0 00-1.33.93 4.3 4.3 0 00-.85 1.28 3.51 3.51 0 00-.3 1.39z" transform="translate(-25.95 -27.69)"/></svg>